<svg
   width="100"
   height="100"
   viewBox="0 0 16.933331 16.933331"
   xmlns="http://www.w3.org/2000/svg"
>
  <g
     transform="translate(-0.41486,-0.35113)">
    <g
       id="g67"
       transform="matrix(2.2242687,0,0,2.2242687,-107.51229,-59.718884)">
      <path
         style="fill:#fefefe;stroke-width:0.08466666"
         d="m 49.423014,33.676809 v -0.804333 h 0.254 0.254 v -0.889 -0.889 h -0.254 -0.254 v -0.804333 -0.804334 h 0.888999 0.889 v 2.497667 2.497666 h -0.889 -0.888999 z m 3.979333,-1.693333 v -2.497667 h 0.719666 0.719667 v 1.693334 1.693333 h 0.211666 c 0.210925,0 0.211667,0.0028 0.211667,0.804333 v 0.804333 H 54.33368 53.402347 Z M 50.77768,28.983233 c -0.544202,-0.08087 -0.897058,-0.293288 -1.005915,-0.605554 -0.230516,-0.661258 0.307736,-1.262536 1.130196,-1.262536 h 0.299052 v 0.973667 c 0,0.535516 -0.0095,0.968575 -0.02117,0.962354 -0.01164,-0.0062 -0.192617,-0.03679 -0.402167,-0.06793 z m 2.624667,-0.936757 v -0.931333 h 0.300537 c 0.547408,0 1.138796,0.465527 1.138796,0.896434 0,0.523597 -0.522068,0.966232 -1.139627,0.966232 h -0.299706 z"
         id="path71" />
      <path
         style="fill:#cb0000;stroke-width:0.08466666"
         d="m 50.77768,28.983233 c -0.544202,-0.08087 -0.897058,-0.293288 -1.005915,-0.605554 -0.230516,-0.661258 0.307736,-1.262536 1.130196,-1.262536 h 0.299052 v 0.973667 c 0,0.535516 -0.0095,0.968575 -0.02117,0.962354 -0.01164,-0.0062 -0.192617,-0.03679 -0.402167,-0.06793 z m 2.624667,-0.936757 v -0.931333 h 0.300537 c 0.547408,0 1.138796,0.465527 1.138796,0.896434 0,0.523597 -0.522068,0.966232 -1.139627,0.966232 h -0.299706 z"
         id="path69"/>
    </g>
  </g>
</svg>
